<svg id="Layer_1" data-name="Layer 1" xmlns="http://www.w3.org/2000/svg" viewBox="0 0 200 200"><defs><style>.cls-1{fill:#fff;}</style></defs><path d="M200.35,100a100.35,100.35,0,1,0-116,99.13V129H58.84V100H84.32V77.89c0-25.15,15-39,37.9-39a154.45,154.45,0,0,1,22.47,2V65.5H132c-12.46,0-16.35,7.74-16.35,15.68V100h27.83l-4.45,29H115.68v70.12A100.38,100.38,0,0,0,200.35,100Z"/><path class="cls-1" d="M139.06,129l4.45-29H115.68V81.18c0-7.94,3.89-15.68,16.35-15.68h12.66V40.81a154.45,154.45,0,0,0-22.47-2c-22.92,0-37.9,13.89-37.9,39V100H58.84v29H84.32v70.12a101.37,101.37,0,0,0,31.36,0V129Z"/></svg>