<svg id="Layer_2" data-name="Layer 2" xmlns="http://www.w3.org/2000/svg" viewBox="0 0 200.99 200.99"><defs><style>.cls-1{fill:#fff;}</style></defs><circle cx="100.49" cy="100.49" r="100.49"/><path class="cls-1" d="M100,48.13c16.89,0,18.9.06,25.57.37a35.21,35.21,0,0,1,11.75,2.17,21.05,21.05,0,0,1,12,12,35.21,35.21,0,0,1,2.17,11.75c.31,6.67.37,8.68.37,25.57s-.06,18.9-.37,25.57a35.21,35.21,0,0,1-2.17,11.75,21.05,21.05,0,0,1-12,12,35.21,35.21,0,0,1-11.75,2.17c-6.67.31-8.67.37-25.57.37s-18.9-.06-25.57-.37a35.21,35.21,0,0,1-11.75-2.17,21.05,21.05,0,0,1-12-12,35.21,35.21,0,0,1-2.17-11.75c-.31-6.67-.37-8.68-.37-25.57s.06-18.9.37-25.57a35.21,35.21,0,0,1,2.17-11.75,21.05,21.05,0,0,1,12-12A35.21,35.21,0,0,1,74.43,48.5c6.67-.31,8.68-.37,25.57-.37m0-11.4c-17.18,0-19.34.07-26.09.38a46.17,46.17,0,0,0-15.36,2.94,32.41,32.41,0,0,0-18.5,18.5,46.17,46.17,0,0,0-2.94,15.36c-.31,6.75-.38,8.91-.38,26.09s.07,19.34.38,26.09a46.17,46.17,0,0,0,2.94,15.36A32.41,32.41,0,0,0,58.55,160a46.17,46.17,0,0,0,15.36,2.94c6.75.31,8.91.38,26.09.38s19.34-.07,26.09-.38A46.17,46.17,0,0,0,141.45,160a32.41,32.41,0,0,0,18.5-18.5,46.17,46.17,0,0,0,2.94-15.36c.31-6.75.38-8.91.38-26.09s-.07-19.34-.38-26.09A46.17,46.17,0,0,0,160,58.55a32.41,32.41,0,0,0-18.5-18.5,46.17,46.17,0,0,0-15.36-2.94c-6.75-.31-8.91-.38-26.09-.38Z" transform="translate(0.49 0.49)"/><path class="cls-1" d="M100,67.51A32.49,32.49,0,1,0,132.49,100,32.49,32.49,0,0,0,100,67.51Zm0,53.58A21.09,21.09,0,1,1,121.09,100,21.09,21.09,0,0,1,100,121.09Z" transform="translate(0.49 0.49)"/><circle class="cls-1" cx="134.27" cy="66.72" r="7.59"/></svg>