<svg id="Layer_4" data-name="Layer 4" xmlns="http://www.w3.org/2000/svg" viewBox="0 0 195.29 195.29"><defs><style>.cls-1{fill:#fdfdfd;}</style></defs><circle cx="97.64" cy="97.64" r="97.64"/><path class="cls-1" d="M107.91,86.27c1.61-1.8,2.93-3.63,4.57-5.18a25.12,25.12,0,0,1,18-7.12,41.77,41.77,0,0,1,11.35,1.38c8.47,2.45,13.4,8.29,15.75,16.56,1.76,6.21,2.08,12.59,2.09,19,0,13.49,0,27,0,40.47,0,1.26-.36,1.59-1.6,1.58q-10.43-.09-20.85,0c-1.22,0-1.48-.36-1.48-1.52q.06-19.24,0-38.5a34.7,34.7,0,0,0-1.12-9.56c-1.66-5.76-5.79-8.7-11.82-8.38-8.24.44-12.53,4.52-13.58,12.9a46.55,46.55,0,0,0-.36,6c0,12.48,0,25,0,37.44,0,1.25-.31,1.61-1.58,1.6q-10.5-.09-21,0c-1.12,0-1.44-.3-1.44-1.43q0-37.06,0-74.14c0-1.22.4-1.51,1.55-1.5q10,.07,19.94,0c1.22,0,1.54.38,1.51,1.54C107.87,80.36,107.91,83.32,107.91,86.27Z" transform="translate(-2.71 -1.95)"/><path class="cls-1" d="M69.84,114.52c0,12.22,0,24.45,0,36.67,0,1.36-.34,1.77-1.74,1.76-6.95-.08-13.89-.06-20.84,0-1.11,0-1.45-.27-1.45-1.42q.06-37.14,0-74.26c0-1,.25-1.39,1.33-1.39q10.57.07,21.14,0c1.36,0,1.54.51,1.54,1.67Q69.82,96,69.84,114.52Z" transform="translate(-2.71 -1.95)"/><path class="cls-1" d="M71.75,51.34A13.88,13.88,0,1,1,57.9,37.54,13.93,13.93,0,0,1,71.75,51.34Z" transform="translate(-2.71 -1.95)"/></svg>