<svg id="Layer_3" data-name="Layer 3" xmlns="http://www.w3.org/2000/svg" viewBox="0 0 196.99 196.99"><defs><style>.cls-1{fill:#fff;fill-rule:evenodd;}</style></defs><circle cx="98.49" cy="98.49" r="98.49"/><g id="WA_Logo" data-name="WA Logo"><path class="cls-1" d="M146.89,53.48a62.49,62.49,0,0,0-98.34,75.37l-8.87,32.37,33.12-8.69a62.36,62.36,0,0,0,29.86,7.6h0a62.49,62.49,0,0,0,44.2-106.65Zm-44.2,96.1h0a51.87,51.87,0,0,1-26.44-7.23l-1.89-1.13-19.66,5.16,5.25-19.16-1.24-2a51.94,51.94,0,1,1,44,24.32Zm28.48-38.88c-1.56-.78-9.23-4.55-10.66-5.07s-2.48-.79-3.52.78-4,5.07-4.94,6.12-1.82,1.17-3.38.39a42.7,42.7,0,0,1-12.56-7.75,47.08,47.08,0,0,1-8.68-10.81c-.91-1.56-.1-2.41.68-3.19s1.56-1.82,2.34-2.73A10.5,10.5,0,0,0,92,85.83a2.81,2.81,0,0,0-.13-2.73c-.39-.78-3.51-8.46-4.81-11.59s-2.55-2.63-3.51-2.68-2,0-3,0a5.75,5.75,0,0,0-4.17,2,17.51,17.51,0,0,0-5.46,13c0,7.68,5.59,15.1,6.37,16.15s11,16.8,26.67,23.56a90.74,90.74,0,0,0,8.9,3.29,21.43,21.43,0,0,0,9.84.62c3-.45,9.23-3.78,10.54-7.42s1.3-6.77.91-7.42S132.73,111.48,131.17,110.7Z" transform="translate(-1.01 -1.16)"/></g></svg>